<svg xmlns="http://www.w3.org/2000/svg" viewBox="0 0 1080 2400" width="1080" height="2400">
  <defs>
    <radialGradient id="bg" cx="50%" cy="40%" r="80%">
      <stop offset="0%" stop-color="#9B5CFF" stop-opacity="0.15"/>
      <stop offset="50%" stop-color="#6EFFB7" stop-opacity="0.10"/>
      <stop offset="100%" stop-color="#06070F" stop-opacity="0"/>
    </radialGradient>
    <linearGradient id="fabGrad" x1="0" y1="0" x2="1" y2="1">
      <stop offset="0%" stop-color="#6EFFB7"/>
      <stop offset="100%" stop-color="#9B5CFF"/>
    </linearGradient>
  </defs>
  <rect width="1080" height="2400" fill="#06070F"/>
  <rect width="1080" height="2400" fill="url(#bg)"/>
  <text x="60" y="50" fill="#F4EDE4" font-family="JetBrains Mono, monospace" font-size="20" letter-spacing="2">9:41</text>
  <text x="1020" y="50" fill="#F4EDE4" font-family="JetBrains Mono, monospace" font-size="20" letter-spacing="2" text-anchor="end">●●●●○  87%</text>
  <g transform="translate(40, 110)" stroke="#F4EDE4" stroke-opacity="0.4" stroke-width="2.5" fill="none">
    <line x1="0" y1="0" x2="20" y2="20"/>
    <line x1="20" y1="0" x2="0" y2="20"/>
  </g>
  <text x="80" y="130" fill="#F4EDE4" font-family="Space Grotesk, sans-serif" font-weight="700" font-size="36" letter-spacing="-0.8">Avatars</text>
  <g transform="translate(920, 122)" fill="none" stroke="#F4EDE4" stroke-opacity="0.4" stroke-width="2.5" stroke-linecap="round">
    <circle cx="14" cy="14" r="10"/>
    <line x1="8" y1="14" x2="20" y2="14"/>
  </g>
  <g transform="translate(1000, 122)" fill="none" stroke="#F4EDE4" stroke-opacity="0.4" stroke-width="2.5" stroke-linecap="round">
    <line x1="2" y1="6" x2="22" y2="6"/>
    <line x1="2" y1="14" x2="22" y2="14"/>
    <line x1="2" y1="22" x2="22" y2="22"/>
  </g>
  <text x="40" y="170" fill="#9FA8C7" font-family="JetBrains Mono, monospace" font-size="14" letter-spacing="1">0 AVATARS · 0 CAPTURED · 0 IMPORTED · 0 GB</text>
  <g transform="translate(40, 200)">
    <rect width="68" height="44" rx="22" fill="#6EFFB7"/>
    <text x="34" y="29" fill="#06070F" font-family="Inter, sans-serif" font-weight="700" font-size="15" text-anchor="middle">All</text>
  </g>
  <g transform="translate(120, 200)">
    <rect width="116" height="44" rx="22" fill="#FFFFFF" fill-opacity="0.04" stroke="#FFFFFF" stroke-opacity="0.06"/>
    <text x="58" y="29" fill="#F4EDE4" fill-opacity="0.5" font-family="Inter, sans-serif" font-weight="500" font-size="15" text-anchor="middle">Captured</text>
  </g>
  <g transform="translate(248, 200)">
    <rect width="108" height="44" rx="22" fill="#FFFFFF" fill-opacity="0.04" stroke="#FFFFFF" stroke-opacity="0.06"/>
    <text x="54" y="29" fill="#F4EDE4" fill-opacity="0.5" font-family="Inter, sans-serif" font-weight="500" font-size="15" text-anchor="middle">Imported</text>
  </g>
  <g transform="translate(368, 200)">
    <rect width="128" height="44" rx="22" fill="#9B5CFF" fill-opacity="0.20" stroke="#9B5CFF" stroke-opacity="0.6"/>
    <text x="64" y="29" fill="#9B5CFF" font-family="Inter, sans-serif" font-weight="600" font-size="15" text-anchor="middle">★ Favorites</text>
  </g>
  <g fill="none" stroke="#6EFFB7" stroke-opacity="0.2">
    <circle cx="540" cy="950" r="180"/>
    <circle cx="540" cy="950" r="240" stroke-opacity="0.15"/>
    <circle cx="540" cy="950" r="300" stroke-opacity="0.10" stroke-dasharray="4 4"/>
  </g>
  <g transform="translate(540,950)">
    <circle cx="44.4" cy="74.1" r="2.05" fill="#6EFFB7" fill-opacity="0.31"/>
    <circle cx="57.2" cy="218.9" r="1.87" fill="#9B5CFF" fill-opacity="0.51"/>
    <circle cx="0.5" cy="65.6" r="3.43" fill="#6EFFB7" fill-opacity="0.33"/>
    <circle cx="62.1" cy="-30.7" r="2.77" fill="#6EFFB7" fill-opacity="0.63"/>
    <circle cx="-0.5" cy="-106.8" r="1.61" fill="#9B5CFF" fill-opacity="0.62"/>
    <circle cx="-10.3" cy="132.1" r="3.19" fill="#9B5CFF" fill-opacity="0.56"/>
    <circle cx="39.9" cy="31.1" r="1.73" fill="#6EFFB7" fill-opacity="0.38"/>
    <circle cx="-47.4" cy="268.8" r="1.93" fill="#9B5CFF" fill-opacity="0.49"/>
    <circle cx="-82.9" cy="139.9" r="2.14" fill="#6EFFB7" fill-opacity="0.68"/>
    <circle cx="-108.6" cy="-127.3" r="2.55" fill="#6EFFB7" fill-opacity="0.38"/>
    <circle cx="-44.0" cy="-59.2" r="1.72" fill="#6EFFB7" fill-opacity="0.51"/>
    <circle cx="54.4" cy="208.7" r="2.62" fill="#9B5CFF" fill-opacity="0.39"/>
    <circle cx="-83.7" cy="-196.6" r="2.13" fill="#6EFFB7" fill-opacity="0.59"/>
    <circle cx="-65.4" cy="-125.8" r="1.89" fill="#9B5CFF" fill-opacity="0.49"/>
    <circle cx="-3.7" cy="-23.6" r="2.22" fill="#9B5CFF" fill-opacity="0.54"/>
    <circle cx="-26.9" cy="159.7" r="1.64" fill="#6EFFB7" fill-opacity="0.41"/>
    <circle cx="39.3" cy="-67.7" r="1.72" fill="#6EFFB7" fill-opacity="0.45"/>
    <circle cx="9.3" cy="-271.7" r="2.39" fill="#9B5CFF" fill-opacity="0.57"/>
    <circle cx="28.3" cy="217.8" r="1.83" fill="#9B5CFF" fill-opacity="0.65"/>
    <circle cx="-65.3" cy="62.9" r="1.67" fill="#9B5CFF" fill-opacity="0.43"/>
    <circle cx="-5.2" cy="128.5" r="2.34" fill="#6EFFB7" fill-opacity="0.31"/>
    <circle cx="52.7" cy="-134.1" r="3.42" fill="#9B5CFF" fill-opacity="0.36"/>
    <circle cx="-14.4" cy="-268.5" r="3.11" fill="#9B5CFF" fill-opacity="0.63"/>
    <circle cx="-44.1" cy="-220.9" r="2.92" fill="#6EFFB7" fill-opacity="0.63"/>
    <circle cx="17.3" cy="-119.7" r="3.02" fill="#6EFFB7" fill-opacity="0.51"/>
    <circle cx="-14.5" cy="185.5" r="3.12" fill="#9B5CFF" fill-opacity="0.32"/>
    <circle cx="55.1" cy="206.6" r="2.67" fill="#6EFFB7" fill-opacity="0.40"/>
    <circle cx="17.5" cy="196.1" r="2.94" fill="#9B5CFF" fill-opacity="0.66"/>
    <circle cx="-50.5" cy="-228.4" r="2.67" fill="#6EFFB7" fill-opacity="0.35"/>
    <circle cx="-43.6" cy="-168.8" r="3.40" fill="#9B5CFF" fill-opacity="0.42"/>
    <circle cx="59.8" cy="238.8" r="2.65" fill="#9B5CFF" fill-opacity="0.68"/>
    <circle cx="-108.5" cy="100.7" r="3.38" fill="#9B5CFF" fill-opacity="0.55"/>
    <circle cx="43.9" cy="233.3" r="1.78" fill="#9B5CFF" fill-opacity="0.51"/>
    <circle cx="61.7" cy="-268.3" r="3.08" fill="#9B5CFF" fill-opacity="0.48"/>
    <circle cx="-29.4" cy="-216.9" r="3.10" fill="#9B5CFF" fill-opacity="0.67"/>
    <circle cx="65.5" cy="205.6" r="3.01" fill="#6EFFB7" fill-opacity="0.39"/>
    <circle cx="-108.6" cy="-270.8" r="3.22" fill="#9B5CFF" fill-opacity="0.64"/>
    <circle cx="-52.1" cy="-97.0" r="2.16" fill="#9B5CFF" fill-opacity="0.47"/>
    <circle cx="-7.0" cy="-2.4" r="1.90" fill="#6EFFB7" fill-opacity="0.56"/>
    <circle cx="-81.8" cy="-166.3" r="1.70" fill="#6EFFB7" fill-opacity="0.40"/>
    <circle cx="42.0" cy="-207.1" r="2.59" fill="#9B5CFF" fill-opacity="0.51"/>
    <circle cx="-37.1" cy="77.9" r="1.55" fill="#9B5CFF" fill-opacity="0.37"/>
    <circle cx="-30.5" cy="-91.2" r="2.01" fill="#6EFFB7" fill-opacity="0.63"/>
    <circle cx="-68.8" cy="186.9" r="2.40" fill="#6EFFB7" fill-opacity="0.51"/>
    <circle cx="31.5" cy="-122.1" r="1.95" fill="#9B5CFF" fill-opacity="0.47"/>
    <circle cx="105.2" cy="-190.7" r="2.19" fill="#6EFFB7" fill-opacity="0.53"/>
    <circle cx="31.9" cy="263.7" r="3.41" fill="#9B5CFF" fill-opacity="0.34"/>
    <circle cx="-64.2" cy="173.6" r="1.98" fill="#6EFFB7" fill-opacity="0.58"/>
    <circle cx="63.7" cy="8.9" r="2.27" fill="#9B5CFF" fill-opacity="0.41"/>
    <circle cx="27.2" cy="-236.6" r="1.88" fill="#9B5CFF" fill-opacity="0.47"/>
    <circle cx="-15.4" cy="214.6" r="3.13" fill="#6EFFB7" fill-opacity="0.36"/>
    <circle cx="57.0" cy="128.9" r="2.75" fill="#9B5CFF" fill-opacity="0.56"/>
    <circle cx="99.2" cy="94.2" r="3.10" fill="#6EFFB7" fill-opacity="0.46"/>
    <circle cx="-56.2" cy="-56.3" r="3.04" fill="#6EFFB7" fill-opacity="0.32"/>
    <circle cx="-102.7" cy="-157.7" r="1.83" fill="#6EFFB7" fill-opacity="0.44"/>
    <circle cx="-45.5" cy="-13.1" r="2.35" fill="#6EFFB7" fill-opacity="0.34"/>
    <circle cx="-80.2" cy="-225.7" r="2.54" fill="#9B5CFF" fill-opacity="0.48"/>
    <circle cx="15.2" cy="233.9" r="1.68" fill="#6EFFB7" fill-opacity="0.56"/>
    <circle cx="87.8" cy="275.9" r="2.56" fill="#6EFFB7" fill-opacity="0.57"/>
    <circle cx="40.7" cy="48.7" r="3.49" fill="#6EFFB7" fill-opacity="0.51"/>
    <circle cx="-26.5" cy="3.7" r="2.58" fill="#6EFFB7" fill-opacity="0.64"/>
    <circle cx="-5.8" cy="-121.5" r="3.33" fill="#6EFFB7" fill-opacity="0.35"/>
    <circle cx="-43.0" cy="-137.9" r="3.22" fill="#9B5CFF" fill-opacity="0.58"/>
    <circle cx="60.0" cy="183.1" r="3.25" fill="#6EFFB7" fill-opacity="0.51"/>
    <circle cx="-10.9" cy="-171.0" r="3.15" fill="#9B5CFF" fill-opacity="0.35"/>
    <circle cx="81.6" cy="57.0" r="3.37" fill="#9B5CFF" fill-opacity="0.43"/>
    <circle cx="-65.7" cy="-213.2" r="2.13" fill="#9B5CFF" fill-opacity="0.42"/>
    <circle cx="45.3" cy="-122.9" r="2.80" fill="#9B5CFF" fill-opacity="0.54"/>
    <circle cx="-24.0" cy="183.0" r="2.80" fill="#6EFFB7" fill-opacity="0.44"/>
    <circle cx="-53.9" cy="-118.0" r="3.08" fill="#9B5CFF" fill-opacity="0.43"/>
    <circle cx="47.6" cy="-262.6" r="1.62" fill="#6EFFB7" fill-opacity="0.31"/>
    <circle cx="56.4" cy="-102.7" r="2.37" fill="#9B5CFF" fill-opacity="0.65"/>
    <circle cx="-34.3" cy="-80.7" r="1.99" fill="#9B5CFF" fill-opacity="0.70"/>
    <circle cx="11.0" cy="-272.0" r="2.98" fill="#6EFFB7" fill-opacity="0.66"/>
    <circle cx="68.4" cy="-134.8" r="1.66" fill="#9B5CFF" fill-opacity="0.40"/>
    <circle cx="-44.9" cy="-93.1" r="3.42" fill="#6EFFB7" fill-opacity="0.43"/>
    <circle cx="-45.2" cy="-206.4" r="3.12" fill="#6EFFB7" fill-opacity="0.41"/>
    <circle cx="-28.5" cy="-111.2" r="2.15" fill="#6EFFB7" fill-opacity="0.67"/>
    <circle cx="12.9" cy="-105.5" r="1.63" fill="#6EFFB7" fill-opacity="0.48"/>
    <circle cx="-25.2" cy="46.9" r="3.24" fill="#9B5CFF" fill-opacity="0.62"/>
    <circle cx="-19.4" cy="88.0" r="1.83" fill="#6EFFB7" fill-opacity="0.63"/>
    <circle cx="-46.9" cy="-118.1" r="2.56" fill="#6EFFB7" fill-opacity="0.56"/>
    <circle cx="57.1" cy="78.0" r="1.52" fill="#9B5CFF" fill-opacity="0.63"/>
    <circle cx="-22.8" cy="-172.8" r="2.95" fill="#9B5CFF" fill-opacity="0.60"/>
    <circle cx="56.0" cy="-104.2" r="2.19" fill="#6EFFB7" fill-opacity="0.42"/>
    <circle cx="36.3" cy="-182.7" r="1.67" fill="#6EFFB7" fill-opacity="0.34"/>
    <circle cx="57.9" cy="136.1" r="3.03" fill="#6EFFB7" fill-opacity="0.38"/>
    <circle cx="18.2" cy="-56.0" r="2.80" fill="#9B5CFF" fill-opacity="0.55"/>
    <circle cx="34.3" cy="119.9" r="3.37" fill="#9B5CFF" fill-opacity="0.68"/>
    <circle cx="33.6" cy="210.6" r="2.26" fill="#9B5CFF" fill-opacity="0.59"/>
    <circle cx="72.3" cy="-75.5" r="3.26" fill="#6EFFB7" fill-opacity="0.43"/>
    <circle cx="42.3" cy="229.7" r="2.50" fill="#6EFFB7" fill-opacity="0.64"/>
    <circle cx="55.0" cy="77.9" r="2.22" fill="#6EFFB7" fill-opacity="0.50"/>
    <circle cx="90.1" cy="144.0" r="1.91" fill="#9B5CFF" fill-opacity="0.33"/>
    <circle cx="11.4" cy="-217.1" r="3.16" fill="#9B5CFF" fill-opacity="0.31"/>
    <circle cx="-99.8" cy="163.0" r="1.92" fill="#6EFFB7" fill-opacity="0.57"/>
    <circle cx="-0.9" cy="144.5" r="2.88" fill="#9B5CFF" fill-opacity="0.69"/>
    <circle cx="2.9" cy="-68.6" r="1.50" fill="#9B5CFF" fill-opacity="0.65"/>
    <circle cx="34.4" cy="-83.5" r="1.89" fill="#9B5CFF" fill-opacity="0.39"/>
    <circle cx="33.2" cy="274.7" r="2.32" fill="#9B5CFF" fill-opacity="0.31"/>
    <circle cx="69.7" cy="120.4" r="2.62" fill="#9B5CFF" fill-opacity="0.46"/>
    <circle cx="-10.0" cy="-225.7" r="2.28" fill="#6EFFB7" fill-opacity="0.43"/>
    <circle cx="54.0" cy="-75.6" r="1.95" fill="#9B5CFF" fill-opacity="0.66"/>
    <circle cx="-72.8" cy="-92.5" r="1.55" fill="#6EFFB7" fill-opacity="0.65"/>
    <circle cx="-104.2" cy="26.7" r="2.56" fill="#6EFFB7" fill-opacity="0.64"/>
    <circle cx="97.9" cy="-9.3" r="3.46" fill="#9B5CFF" fill-opacity="0.58"/>
    <circle cx="-1.0" cy="158.2" r="1.66" fill="#6EFFB7" fill-opacity="0.41"/>
    <circle cx="38.9" cy="173.8" r="2.95" fill="#6EFFB7" fill-opacity="0.62"/>
    <circle cx="44.6" cy="-67.0" r="3.14" fill="#9B5CFF" fill-opacity="0.39"/>
    <circle cx="82.0" cy="207.5" r="2.18" fill="#6EFFB7" fill-opacity="0.66"/>
    <circle cx="-53.2" cy="66.5" r="2.12" fill="#9B5CFF" fill-opacity="0.50"/>
    <circle cx="-44.1" cy="-164.8" r="2.81" fill="#6EFFB7" fill-opacity="0.62"/>
    <circle cx="41.7" cy="-248.0" r="3.39" fill="#6EFFB7" fill-opacity="0.50"/>
    <circle cx="-91.7" cy="103.6" r="1.94" fill="#6EFFB7" fill-opacity="0.64"/>
    <circle cx="12.9" cy="79.4" r="3.14" fill="#9B5CFF" fill-opacity="0.31"/>
    <circle cx="52.5" cy="143.0" r="2.67" fill="#9B5CFF" fill-opacity="0.39"/>
    <circle cx="78.5" cy="-188.9" r="3.14" fill="#9B5CFF" fill-opacity="0.40"/>
    <circle cx="43.3" cy="253.1" r="2.31" fill="#9B5CFF" fill-opacity="0.56"/>
    <circle cx="91.8" cy="-41.1" r="3.28" fill="#6EFFB7" fill-opacity="0.35"/>
    <circle cx="-11.7" cy="-276.0" r="3.32" fill="#6EFFB7" fill-opacity="0.33"/>
    <circle cx="-94.8" cy="188.4" r="1.91" fill="#9B5CFF" fill-opacity="0.42"/>
    <circle cx="-39.8" cy="-33.3" r="3.42" fill="#6EFFB7" fill-opacity="0.49"/>
    <circle cx="84.1" cy="-7.6" r="2.90" fill="#6EFFB7" fill-opacity="0.57"/>
    <circle cx="13.3" cy="-127.6" r="3.46" fill="#6EFFB7" fill-opacity="0.32"/>
    <circle cx="108.1" cy="-39.1" r="1.82" fill="#6EFFB7" fill-opacity="0.69"/>
    <circle cx="-53.3" cy="139.4" r="3.48" fill="#9B5CFF" fill-opacity="0.46"/>
    <circle cx="107.8" cy="-206.1" r="3.27" fill="#6EFFB7" fill-opacity="0.58"/>
    <circle cx="39.8" cy="-263.6" r="2.67" fill="#9B5CFF" fill-opacity="0.54"/>
    <circle cx="-2.9" cy="-235.4" r="3.12" fill="#6EFFB7" fill-opacity="0.42"/>
    <circle cx="-23.8" cy="-183.0" r="2.41" fill="#9B5CFF" fill-opacity="0.46"/>
    <circle cx="60.7" cy="274.1" r="1.50" fill="#9B5CFF" fill-opacity="0.31"/>
    <circle cx="51.0" cy="-203.0" r="2.56" fill="#9B5CFF" fill-opacity="0.65"/>
    <circle cx="95.6" cy="229.1" r="1.84" fill="#9B5CFF" fill-opacity="0.64"/>
    <circle cx="-7.6" cy="152.9" r="3.05" fill="#6EFFB7" fill-opacity="0.43"/>
    <circle cx="32.8" cy="-47.7" r="2.24" fill="#6EFFB7" fill-opacity="0.47"/>
    <circle cx="24.5" cy="-57.2" r="1.64" fill="#9B5CFF" fill-opacity="0.46"/>
    <circle cx="25.9" cy="45.0" r="3.30" fill="#9B5CFF" fill-opacity="0.69"/>
    <circle cx="28.4" cy="258.4" r="2.27" fill="#6EFFB7" fill-opacity="0.57"/>
    <circle cx="21.4" cy="-77.2" r="1.55" fill="#9B5CFF" fill-opacity="0.68"/>
    <circle cx="-107.4" cy="-78.7" r="1.67" fill="#6EFFB7" fill-opacity="0.43"/>
    <circle cx="47.3" cy="-132.7" r="2.25" fill="#6EFFB7" fill-opacity="0.32"/>
    <circle cx="-34.1" cy="-124.3" r="3.40" fill="#6EFFB7" fill-opacity="0.35"/>
    <circle cx="-84.8" cy="244.4" r="1.64" fill="#6EFFB7" fill-opacity="0.64"/>
    <circle cx="-55.3" cy="-91.2" r="1.69" fill="#6EFFB7" fill-opacity="0.50"/>
    <circle cx="23.0" cy="-106.2" r="3.48" fill="#9B5CFF" fill-opacity="0.48"/>
    <circle cx="20.7" cy="164.5" r="3.23" fill="#9B5CFF" fill-opacity="0.68"/>
    <circle cx="-81.0" cy="233.0" r="2.98" fill="#6EFFB7" fill-opacity="0.40"/>
    <circle cx="-103.0" cy="-66.9" r="3.02" fill="#9B5CFF" fill-opacity="0.50"/>
    <circle cx="35.8" cy="145.6" r="2.97" fill="#6EFFB7" fill-opacity="0.42"/>
    <circle cx="100.2" cy="247.1" r="2.21" fill="#9B5CFF" fill-opacity="0.44"/>
    <circle cx="-15.0" cy="245.4" r="2.17" fill="#9B5CFF" fill-opacity="0.41"/>
    <circle cx="-12.2" cy="157.0" r="2.90" fill="#6EFFB7" fill-opacity="0.43"/>
    <circle cx="90.2" cy="-70.6" r="1.78" fill="#9B5CFF" fill-opacity="0.37"/>
    <circle cx="-13.3" cy="186.6" r="2.07" fill="#6EFFB7" fill-opacity="0.34"/>
    <circle cx="-15.3" cy="-76.1" r="2.33" fill="#9B5CFF" fill-opacity="0.65"/>
    <circle cx="-61.1" cy="53.3" r="2.03" fill="#6EFFB7" fill-opacity="0.69"/>
    <circle cx="-31.5" cy="229.8" r="1.86" fill="#9B5CFF" fill-opacity="0.49"/>
    <circle cx="-83.5" cy="47.0" r="3.45" fill="#6EFFB7" fill-opacity="0.64"/>
    <circle cx="-57.5" cy="74.4" r="3.15" fill="#9B5CFF" fill-opacity="0.59"/>
    <circle cx="41.4" cy="72.2" r="2.91" fill="#6EFFB7" fill-opacity="0.52"/>
    <circle cx="11.6" cy="-111.2" r="2.55" fill="#9B5CFF" fill-opacity="0.42"/>
    <circle cx="-61.0" cy="-241.5" r="1.51" fill="#6EFFB7" fill-opacity="0.41"/>
    <circle cx="55.5" cy="-182.3" r="2.41" fill="#6EFFB7" fill-opacity="0.43"/>
    <circle cx="76.1" cy="76.7" r="1.70" fill="#6EFFB7" fill-opacity="0.31"/>
    <circle cx="-100.7" cy="-66.3" r="3.22" fill="#6EFFB7" fill-opacity="0.46"/>
    <circle cx="-106.2" cy="85.8" r="2.38" fill="#9B5CFF" fill-opacity="0.41"/>
    <circle cx="45.7" cy="-28.2" r="2.08" fill="#9B5CFF" fill-opacity="0.36"/>
    <circle cx="102.9" cy="-190.3" r="2.07" fill="#6EFFB7" fill-opacity="0.33"/>
    <circle cx="25.3" cy="241.2" r="3.21" fill="#6EFFB7" fill-opacity="0.44"/>
    <circle cx="-101.0" cy="261.5" r="2.85" fill="#6EFFB7" fill-opacity="0.39"/>
    <circle cx="50.0" cy="149.3" r="2.71" fill="#6EFFB7" fill-opacity="0.57"/>
    <circle cx="90.3" cy="-154.4" r="3.11" fill="#6EFFB7" fill-opacity="0.41"/>
    <circle cx="-14.2" cy="-20.5" r="1.80" fill="#6EFFB7" fill-opacity="0.46"/>
    <circle cx="55.2" cy="199.1" r="1.57" fill="#6EFFB7" fill-opacity="0.57"/>
    <circle cx="30.5" cy="239.7" r="3.36" fill="#6EFFB7" fill-opacity="0.39"/>
    <circle cx="53.3" cy="113.8" r="2.10" fill="#9B5CFF" fill-opacity="0.69"/>
    <circle cx="-51.5" cy="-104.6" r="2.16" fill="#9B5CFF" fill-opacity="0.48"/>
    <circle cx="-49.0" cy="-258.5" r="2.05" fill="#9B5CFF" fill-opacity="0.53"/>
    <circle cx="51.9" cy="-268.7" r="3.15" fill="#9B5CFF" fill-opacity="0.51"/>
    <circle cx="51.6" cy="119.4" r="1.56" fill="#6EFFB7" fill-opacity="0.55"/>
    <circle cx="-45.9" cy="50.2" r="3.30" fill="#9B5CFF" fill-opacity="0.47"/>
    <circle cx="8.0" cy="20.2" r="3.17" fill="#9B5CFF" fill-opacity="0.62"/>
    <circle cx="5.3" cy="210.7" r="2.11" fill="#6EFFB7" fill-opacity="0.41"/>
    <circle cx="-55.9" cy="23.1" r="3.15" fill="#6EFFB7" fill-opacity="0.46"/>
    <circle cx="63.4" cy="222.3" r="3.09" fill="#9B5CFF" fill-opacity="0.31"/>
    <circle cx="28.6" cy="-143.1" r="3.38" fill="#9B5CFF" fill-opacity="0.54"/>
    <circle cx="43.2" cy="-78.0" r="2.43" fill="#6EFFB7" fill-opacity="0.50"/>
    <circle cx="63.1" cy="-25.2" r="2.73" fill="#9B5CFF" fill-opacity="0.51"/>
    <circle cx="-21.4" cy="80.2" r="1.84" fill="#6EFFB7" fill-opacity="0.64"/>
    <circle cx="63.0" cy="-131.1" r="1.94" fill="#9B5CFF" fill-opacity="0.70"/>
    <circle cx="-27.5" cy="-277.0" r="2.80" fill="#6EFFB7" fill-opacity="0.53"/>
    <circle cx="10.3" cy="91.0" r="2.73" fill="#6EFFB7" fill-opacity="0.43"/>
    <circle cx="21.1" cy="237.5" r="1.56" fill="#9B5CFF" fill-opacity="0.67"/>
    <circle cx="-18.5" cy="-185.6" r="2.80" fill="#9B5CFF" fill-opacity="0.38"/>
    <circle cx="-44.9" cy="-184.2" r="2.53" fill="#6EFFB7" fill-opacity="0.57"/>
    <circle cx="29.0" cy="-20.4" r="3.48" fill="#9B5CFF" fill-opacity="0.40"/>
    <circle cx="64.4" cy="-53.9" r="3.12" fill="#6EFFB7" fill-opacity="0.42"/>
    <circle cx="-55.2" cy="-91.3" r="2.83" fill="#6EFFB7" fill-opacity="0.38"/>
    <circle cx="7.8" cy="167.1" r="1.76" fill="#6EFFB7" fill-opacity="0.40"/>
    <circle cx="-66.4" cy="-136.7" r="1.50" fill="#9B5CFF" fill-opacity="0.61"/>
    <circle cx="6.3" cy="-70.8" r="2.39" fill="#9B5CFF" fill-opacity="0.53"/>
    <circle cx="-44.4" cy="74.6" r="3.10" fill="#9B5CFF" fill-opacity="0.47"/>
    <circle cx="9.0" cy="174.7" r="2.58" fill="#6EFFB7" fill-opacity="0.38"/>
    <circle cx="-51.5" cy="89.3" r="3.23" fill="#6EFFB7" fill-opacity="0.51"/>
    <circle cx="71.8" cy="-125.8" r="2.41" fill="#6EFFB7" fill-opacity="0.45"/>
    <circle cx="21.2" cy="223.2" r="1.54" fill="#9B5CFF" fill-opacity="0.31"/>
    <circle cx="-30.8" cy="-87.6" r="2.94" fill="#6EFFB7" fill-opacity="0.61"/>
    <circle cx="79.0" cy="-233.2" r="2.65" fill="#6EFFB7" fill-opacity="0.55"/>
    <circle cx="25.5" cy="215.9" r="3.20" fill="#9B5CFF" fill-opacity="0.61"/>
    <circle cx="-23.5" cy="-109.8" r="2.44" fill="#9B5CFF" fill-opacity="0.63"/>
    <circle cx="9.3" cy="-168.7" r="3.38" fill="#9B5CFF" fill-opacity="0.53"/>
    <circle cx="-3.3" cy="-277.4" r="2.76" fill="#6EFFB7" fill-opacity="0.57"/>
    <circle cx="63.1" cy="275.2" r="2.62" fill="#9B5CFF" fill-opacity="0.60"/>
    <circle cx="-14.6" cy="76.6" r="2.65" fill="#6EFFB7" fill-opacity="0.67"/>
    <circle cx="-4.2" cy="-86.0" r="1.62" fill="#9B5CFF" fill-opacity="0.35"/>
    <circle cx="-32.8" cy="-147.3" r="1.81" fill="#9B5CFF" fill-opacity="0.66"/>
    <circle cx="17.7" cy="-25.5" r="2.52" fill="#6EFFB7" fill-opacity="0.42"/>
    <circle cx="-33.7" cy="-78.0" r="3.03" fill="#9B5CFF" fill-opacity="0.64"/>
    <circle cx="-50.1" cy="-193.9" r="2.20" fill="#9B5CFF" fill-opacity="0.36"/>
    <circle cx="-60.3" cy="-106.5" r="2.36" fill="#9B5CFF" fill-opacity="0.61"/>
    <circle cx="-25.3" cy="71.7" r="2.30" fill="#6EFFB7" fill-opacity="0.66"/>
    <circle cx="-61.7" cy="144.4" r="2.52" fill="#6EFFB7" fill-opacity="0.34"/>
    <circle cx="-52.7" cy="268.9" r="3.35" fill="#9B5CFF" fill-opacity="0.58"/>
    <circle cx="-34.7" cy="-154.2" r="2.15" fill="#9B5CFF" fill-opacity="0.37"/>
    <circle cx="-12.8" cy="-59.8" r="1.72" fill="#6EFFB7" fill-opacity="0.40"/>
    <circle cx="-38.7" cy="107.7" r="1.77" fill="#9B5CFF" fill-opacity="0.62"/>
    <circle cx="3.8" cy="-177.7" r="2.75" fill="#9B5CFF" fill-opacity="0.63"/>
    <circle cx="-75.0" cy="179.3" r="2.02" fill="#9B5CFF" fill-opacity="0.63"/>
    <circle cx="-103.8" cy="-241.3" r="2.58" fill="#9B5CFF" fill-opacity="0.60"/>
    <circle cx="-104.7" cy="267.5" r="2.00" fill="#6EFFB7" fill-opacity="0.62"/>
    <circle cx="-55.7" cy="201.2" r="2.38" fill="#6EFFB7" fill-opacity="0.40"/>
    <circle cx="-70.4" cy="158.0" r="2.54" fill="#6EFFB7" fill-opacity="0.60"/>
    <circle cx="50.7" cy="-210.0" r="2.86" fill="#6EFFB7" fill-opacity="0.52"/>
    <circle cx="-57.5" cy="-92.6" r="3.31" fill="#9B5CFF" fill-opacity="0.58"/>
    <circle cx="43.6" cy="49.0" r="2.71" fill="#9B5CFF" fill-opacity="0.37"/>
    <circle cx="36.8" cy="-126.2" r="1.92" fill="#6EFFB7" fill-opacity="0.32"/>
    <circle cx="-4.8" cy="142.2" r="2.96" fill="#6EFFB7" fill-opacity="0.32"/>
    <circle cx="-40.3" cy="-271.6" r="1.92" fill="#6EFFB7" fill-opacity="0.50"/>
    <circle cx="-37.8" cy="184.7" r="3.35" fill="#9B5CFF" fill-opacity="0.41"/>
    <circle cx="76.9" cy="-39.6" r="2.07" fill="#9B5CFF" fill-opacity="0.51"/>
    <circle cx="-45.8" cy="-255.1" r="3.18" fill="#9B5CFF" fill-opacity="0.59"/>
    <circle cx="-1.4" cy="-211.2" r="2.56" fill="#9B5CFF" fill-opacity="0.63"/>
    <circle cx="-104.5" cy="242.2" r="3.36" fill="#9B5CFF" fill-opacity="0.62"/>
    <circle cx="-18.1" cy="87.9" r="1.99" fill="#9B5CFF" fill-opacity="0.63"/>
    <circle cx="-56.6" cy="253.5" r="2.46" fill="#6EFFB7" fill-opacity="0.46"/>
    <circle cx="28.6" cy="264.2" r="3.40" fill="#6EFFB7" fill-opacity="0.68"/>
    <circle cx="61.0" cy="-36.1" r="1.58" fill="#9B5CFF" fill-opacity="0.62"/>
    <circle cx="-57.5" cy="-271.9" r="1.60" fill="#6EFFB7" fill-opacity="0.61"/>
    <circle cx="41.4" cy="166.1" r="2.74" fill="#9B5CFF" fill-opacity="0.53"/>
    <circle cx="-6.4" cy="-116.2" r="2.16" fill="#6EFFB7" fill-opacity="0.65"/>
    <circle cx="-57.1" cy="81.9" r="3.36" fill="#6EFFB7" fill-opacity="0.50"/>
    <circle cx="-106.6" cy="209.3" r="1.51" fill="#9B5CFF" fill-opacity="0.57"/>
    <circle cx="-24.0" cy="-95.9" r="3.04" fill="#6EFFB7" fill-opacity="0.41"/>
    <circle cx="80.9" cy="60.0" r="2.47" fill="#6EFFB7" fill-opacity="0.61"/>
    <circle cx="82.8" cy="-195.0" r="1.89" fill="#9B5CFF" fill-opacity="0.67"/>
    <circle cx="38.4" cy="78.5" r="2.79" fill="#6EFFB7" fill-opacity="0.51"/>
    <circle cx="30.9" cy="169.3" r="1.96" fill="#6EFFB7" fill-opacity="0.39"/>
    <circle cx="16.4" cy="49.2" r="2.83" fill="#6EFFB7" fill-opacity="0.54"/>
    <circle cx="13.6" cy="272.2" r="2.34" fill="#6EFFB7" fill-opacity="0.37"/>
    <circle cx="-50.0" cy="-177.0" r="2.87" fill="#6EFFB7" fill-opacity="0.48"/>
    <circle cx="-25.4" cy="174.8" r="3.18" fill="#6EFFB7" fill-opacity="0.69"/>
    <circle cx="65.0" cy="94.7" r="2.08" fill="#6EFFB7" fill-opacity="0.53"/>
    <circle cx="-13.8" cy="-65.1" r="3.44" fill="#9B5CFF" fill-opacity="0.34"/>
    <circle cx="32.5" cy="260.6" r="2.04" fill="#6EFFB7" fill-opacity="0.62"/>
    <circle cx="-5.7" cy="-39.4" r="3.39" fill="#9B5CFF" fill-opacity="0.57"/>
    <circle cx="11.7" cy="-1.8" r="2.19" fill="#9B5CFF" fill-opacity="0.57"/>
    <circle cx="67.7" cy="-62.2" r="3.09" fill="#9B5CFF" fill-opacity="0.40"/>
    <circle cx="58.6" cy="77.0" r="2.76" fill="#9B5CFF" fill-opacity="0.67"/>
    <circle cx="-73.4" cy="-108.2" r="2.30" fill="#6EFFB7" fill-opacity="0.59"/>
    <circle cx="-12.2" cy="199.6" r="2.82" fill="#6EFFB7" fill-opacity="0.46"/>
    <circle cx="-17.2" cy="15.0" r="3.07" fill="#9B5CFF" fill-opacity="0.55"/>
    <circle cx="14.5" cy="275.5" r="2.43" fill="#6EFFB7" fill-opacity="0.63"/>
    <circle cx="-23.6" cy="256.9" r="1.53" fill="#9B5CFF" fill-opacity="0.61"/>
    <circle cx="-49.8" cy="201.2" r="2.19" fill="#9B5CFF" fill-opacity="0.37"/>
    <circle cx="-23.6" cy="73.0" r="3.01" fill="#6EFFB7" fill-opacity="0.49"/>
    <circle cx="81.9" cy="114.1" r="1.77" fill="#6EFFB7" fill-opacity="0.42"/>
    <circle cx="-29.5" cy="-49.9" r="2.35" fill="#9B5CFF" fill-opacity="0.43"/>
    <circle cx="-68.3" cy="136.5" r="2.89" fill="#6EFFB7" fill-opacity="0.43"/>
    <circle cx="-21.9" cy="-139.7" r="1.76" fill="#9B5CFF" fill-opacity="0.39"/>
    <circle cx="-20.9" cy="133.2" r="2.12" fill="#9B5CFF" fill-opacity="0.61"/>
    <circle cx="-55.0" cy="265.6" r="2.38" fill="#6EFFB7" fill-opacity="0.50"/>
    <circle cx="61.8" cy="-5.2" r="3.24" fill="#6EFFB7" fill-opacity="0.55"/>
    <circle cx="-29.6" cy="240.5" r="2.88" fill="#9B5CFF" fill-opacity="0.58"/>
    <circle cx="-14.5" cy="-134.2" r="1.91" fill="#6EFFB7" fill-opacity="0.58"/>
    <circle cx="29.3" cy="-189.0" r="2.97" fill="#6EFFB7" fill-opacity="0.51"/>
    <circle cx="33.4" cy="-67.8" r="2.79" fill="#6EFFB7" fill-opacity="0.68"/>
    <circle cx="34.4" cy="-271.7" r="1.77" fill="#6EFFB7" fill-opacity="0.34"/>
    <circle cx="-14.6" cy="140.9" r="1.89" fill="#6EFFB7" fill-opacity="0.33"/>
    <circle cx="35.3" cy="-67.1" r="1.57" fill="#6EFFB7" fill-opacity="0.68"/>
    <circle cx="52.1" cy="-26.4" r="2.35" fill="#6EFFB7" fill-opacity="0.50"/>
    <circle cx="-90.1" cy="51.4" r="1.69" fill="#9B5CFF" fill-opacity="0.30"/>
    <circle cx="-32.6" cy="35.3" r="1.93" fill="#9B5CFF" fill-opacity="0.45"/>
    <circle cx="-17.5" cy="-47.8" r="3.39" fill="#9B5CFF" fill-opacity="0.51"/>
    <circle cx="-0.3" cy="-62.6" r="2.10" fill="#9B5CFF" fill-opacity="0.61"/>
    <circle cx="-41.6" cy="-61.1" r="2.24" fill="#9B5CFF" fill-opacity="0.41"/>
    <circle cx="23.3" cy="-231.8" r="3.35" fill="#9B5CFF" fill-opacity="0.55"/>
    <circle cx="51.5" cy="-24.6" r="2.95" fill="#6EFFB7" fill-opacity="0.70"/>
    <circle cx="58.0" cy="-279.5" r="2.40" fill="#6EFFB7" fill-opacity="0.42"/>
    <circle cx="-39.4" cy="-276.8" r="2.97" fill="#6EFFB7" fill-opacity="0.60"/>
    <circle cx="36.1" cy="-192.7" r="3.07" fill="#6EFFB7" fill-opacity="0.47"/>
    <circle cx="-36.5" cy="65.4" r="2.26" fill="#9B5CFF" fill-opacity="0.46"/>
    <circle cx="-57.5" cy="19.9" r="3.42" fill="#6EFFB7" fill-opacity="0.58"/>
    <circle cx="-104.3" cy="272.8" r="2.32" fill="#9B5CFF" fill-opacity="0.40"/>
    <circle cx="-21.9" cy="274.9" r="3.50" fill="#9B5CFF" fill-opacity="0.34"/>
    <circle cx="-17.0" cy="-215.9" r="1.63" fill="#9B5CFF" fill-opacity="0.55"/>
    <circle cx="-39.2" cy="-188.7" r="1.79" fill="#9B5CFF" fill-opacity="0.57"/>
    <circle cx="5.1" cy="275.8" r="2.76" fill="#9B5CFF" fill-opacity="0.39"/>
    <circle cx="35.2" cy="-39.5" r="1.53" fill="#6EFFB7" fill-opacity="0.34"/>
    <circle cx="-19.8" cy="187.3" r="1.74" fill="#6EFFB7" fill-opacity="0.65"/>
    <circle cx="-40.1" cy="159.9" r="1.73" fill="#6EFFB7" fill-opacity="0.69"/>
    <circle cx="-33.3" cy="-10.9" r="3.21" fill="#9B5CFF" fill-opacity="0.48"/>
    <circle cx="3.5" cy="173.3" r="3.38" fill="#9B5CFF" fill-opacity="0.51"/>
    <circle cx="-1.8" cy="0.3" r="3.21" fill="#9B5CFF" fill-opacity="0.39"/>
    <circle cx="-46.7" cy="30.6" r="3.26" fill="#9B5CFF" fill-opacity="0.54"/>
    <circle cx="-13.0" cy="271.4" r="1.91" fill="#9B5CFF" fill-opacity="0.64"/>
    <circle cx="0.0" cy="-93.7" r="2.00" fill="#6EFFB7" fill-opacity="0.67"/>
    <circle cx="58.6" cy="-173.4" r="1.81" fill="#6EFFB7" fill-opacity="0.44"/>
    <circle cx="63.5" cy="-213.2" r="3.26" fill="#6EFFB7" fill-opacity="0.38"/>
    <circle cx="47.2" cy="-145.2" r="2.90" fill="#6EFFB7" fill-opacity="0.65"/>
    <circle cx="36.7" cy="224.9" r="2.04" fill="#9B5CFF" fill-opacity="0.47"/>
    <circle cx="-54.7" cy="-275.0" r="1.66" fill="#9B5CFF" fill-opacity="0.45"/>
    <circle cx="22.4" cy="-27.2" r="3.33" fill="#9B5CFF" fill-opacity="0.31"/>
    <circle cx="-33.1" cy="-201.9" r="3.37" fill="#6EFFB7" fill-opacity="0.49"/>
    <circle cx="-60.3" cy="-255.5" r="2.26" fill="#6EFFB7" fill-opacity="0.62"/>
    <circle cx="61.0" cy="-153.7" r="2.22" fill="#6EFFB7" fill-opacity="0.67"/>
    <circle cx="-57.6" cy="59.7" r="2.15" fill="#6EFFB7" fill-opacity="0.51"/>
    <circle cx="-6.7" cy="-55.4" r="3.41" fill="#9B5CFF" fill-opacity="0.47"/>
    <circle cx="54.0" cy="-79.1" r="3.30" fill="#6EFFB7" fill-opacity="0.40"/>
    <circle cx="-30.8" cy="-67.4" r="3.28" fill="#6EFFB7" fill-opacity="0.37"/>
    <circle cx="-53.0" cy="255.9" r="3.05" fill="#9B5CFF" fill-opacity="0.61"/>
    <circle cx="-35.0" cy="276.8" r="2.70" fill="#6EFFB7" fill-opacity="0.66"/>
    <circle cx="-82.7" cy="-25.3" r="2.87" fill="#6EFFB7" fill-opacity="0.32"/>
    <circle cx="108.7" cy="-187.2" r="2.43" fill="#6EFFB7" fill-opacity="0.32"/>
    <circle cx="-77.9" cy="247.7" r="1.97" fill="#9B5CFF" fill-opacity="0.56"/>
    <circle cx="-87.5" cy="-181.5" r="1.69" fill="#6EFFB7" fill-opacity="0.35"/>
    <circle cx="81.5" cy="220.8" r="2.27" fill="#6EFFB7" fill-opacity="0.52"/>
    <circle cx="-103.0" cy="18.4" r="1.92" fill="#9B5CFF" fill-opacity="0.67"/>
    <circle cx="-27.9" cy="274.2" r="1.95" fill="#9B5CFF" fill-opacity="0.33"/>
    <circle cx="9.4" cy="228.0" r="2.56" fill="#9B5CFF" fill-opacity="0.53"/>
    <circle cx="-28.7" cy="120.5" r="2.16" fill="#6EFFB7" fill-opacity="0.32"/>
    <circle cx="68.6" cy="-17.5" r="1.89" fill="#6EFFB7" fill-opacity="0.38"/>
    <circle cx="104.4" cy="29.6" r="3.39" fill="#9B5CFF" fill-opacity="0.64"/>
    <circle cx="89.6" cy="278.9" r="2.03" fill="#6EFFB7" fill-opacity="0.42"/>
    <circle cx="-3.5" cy="-169.0" r="2.61" fill="#9B5CFF" fill-opacity="0.55"/>
    <circle cx="6.1" cy="-0.9" r="1.81" fill="#9B5CFF" fill-opacity="0.50"/>
    <circle cx="-5.7" cy="-210.8" r="1.88" fill="#6EFFB7" fill-opacity="0.47"/>
    <circle cx="67.8" cy="40.8" r="2.55" fill="#6EFFB7" fill-opacity="0.42"/>
    <circle cx="80.9" cy="-179.2" r="2.62" fill="#6EFFB7" fill-opacity="0.46"/>
    <circle cx="-49.7" cy="-63.5" r="2.66" fill="#9B5CFF" fill-opacity="0.54"/>
    <circle cx="-66.6" cy="158.6" r="2.20" fill="#9B5CFF" fill-opacity="0.46"/>
    <circle cx="-34.7" cy="-246.6" r="2.75" fill="#9B5CFF" fill-opacity="0.52"/>
    <circle cx="44.1" cy="184.3" r="2.41" fill="#9B5CFF" fill-opacity="0.52"/>
    <circle cx="63.2" cy="-146.5" r="3.16" fill="#9B5CFF" fill-opacity="0.46"/>
    <circle cx="-32.5" cy="150.9" r="1.74" fill="#9B5CFF" fill-opacity="0.47"/>
    <circle cx="68.6" cy="-130.0" r="3.22" fill="#9B5CFF" fill-opacity="0.52"/>
    <circle cx="-31.6" cy="-81.4" r="1.92" fill="#6EFFB7" fill-opacity="0.56"/>
    <circle cx="32.7" cy="-23.6" r="3.12" fill="#9B5CFF" fill-opacity="0.44"/>
    <circle cx="15.5" cy="213.0" r="2.99" fill="#6EFFB7" fill-opacity="0.40"/>
    <circle cx="38.3" cy="85.4" r="1.69" fill="#9B5CFF" fill-opacity="0.31"/>
    <circle cx="-21.9" cy="-159.4" r="2.39" fill="#6EFFB7" fill-opacity="0.63"/>
    <circle cx="27.9" cy="88.5" r="2.19" fill="#6EFFB7" fill-opacity="0.46"/>
    <circle cx="-36.4" cy="-130.5" r="3.46" fill="#6EFFB7" fill-opacity="0.66"/>
    <circle cx="-62.2" cy="-168.3" r="2.24" fill="#6EFFB7" fill-opacity="0.42"/>
    <circle cx="8.9" cy="-75.3" r="2.79" fill="#9B5CFF" fill-opacity="0.68"/>
    <circle cx="34.7" cy="277.8" r="1.65" fill="#9B5CFF" fill-opacity="0.42"/>
    <circle cx="59.2" cy="120.7" r="3.22" fill="#9B5CFF" fill-opacity="0.34"/>
    <circle cx="-21.6" cy="-146.6" r="2.81" fill="#9B5CFF" fill-opacity="0.61"/>
    <circle cx="-9.1" cy="149.7" r="2.90" fill="#9B5CFF" fill-opacity="0.36"/>
    <circle cx="19.0" cy="-90.7" r="2.39" fill="#6EFFB7" fill-opacity="0.48"/>
    <circle cx="-16.3" cy="-35.3" r="2.16" fill="#9B5CFF" fill-opacity="0.31"/>
    <circle cx="-50.5" cy="35.3" r="2.25" fill="#6EFFB7" fill-opacity="0.47"/>
    <circle cx="40.7" cy="-74.6" r="2.07" fill="#9B5CFF" fill-opacity="0.45"/>
    <circle cx="-23.6" cy="-25.3" r="2.50" fill="#6EFFB7" fill-opacity="0.44"/>
    <circle cx="-84.5" cy="239.5" r="3.10" fill="#6EFFB7" fill-opacity="0.70"/>
    <circle cx="-41.3" cy="0.1" r="2.04" fill="#6EFFB7" fill-opacity="0.52"/>
    <circle cx="52.3" cy="-203.5" r="3.28" fill="#9B5CFF" fill-opacity="0.50"/>
    <circle cx="-74.5" cy="-237.7" r="3.43" fill="#6EFFB7" fill-opacity="0.59"/>
    <circle cx="31.6" cy="-134.0" r="2.69" fill="#9B5CFF" fill-opacity="0.44"/>
    <circle cx="-36.7" cy="213.2" r="2.07" fill="#9B5CFF" fill-opacity="0.58"/>
    <circle cx="4.7" cy="259.5" r="2.72" fill="#6EFFB7" fill-opacity="0.66"/>
  </g>
  <g stroke="#6EFFB7" stroke-width="2" stroke-opacity="0.8" fill="none">
    <line x1="510" y1="950" x2="530" y2="950"/>
    <line x1="550" y1="950" x2="570" y2="950"/>
    <line x1="540" y1="920" x2="540" y2="940"/>
    <line x1="540" y1="960" x2="540" y2="980"/>
  </g>
  <circle cx="540" cy="950" r="3" fill="#6EFFB7"/>
  <text x="540" y="1640" fill="#F4EDE4" font-family="Space Grotesk, sans-serif" font-weight="700" font-size="56" text-anchor="middle" letter-spacing="-1">No avatars yet</text>
  <text x="540" y="1700" fill="#F4EDE4" fill-opacity="0.72" font-family="Inter, sans-serif" font-size="22" text-anchor="middle">Capture your first avatar with the camera,</text>
  <text x="540" y="1730" fill="#F4EDE4" fill-opacity="0.72" font-family="Inter, sans-serif" font-size="22" text-anchor="middle">or import a .ksplat file from your device.</text>
  <g transform="translate(40, 1820)">
    <rect width="480" height="80" rx="40" fill="#6EFFB7"/>
    <g transform="translate(60, 40)" fill="#06070F">
      <circle r="14"/>
      <circle r="6" fill="#6EFFB7"/>
    </g>
    <text x="240" y="52" fill="#06070F" font-family="Inter, sans-serif" font-weight="700" font-size="22" text-anchor="middle">Capture avatar</text>
  </g>
  <g transform="translate(560, 1820)">
    <rect width="480" height="80" rx="40" fill="#FFFFFF" fill-opacity="0.04" stroke="#9B5CFF" stroke-opacity="0.6" stroke-width="2"/>
    <g transform="translate(60, 40)" stroke="#9B5CFF" stroke-width="3" fill="none" stroke-linecap="round">
      <rect x="-12" y="-12" width="24" height="24" rx="3"/>
      <line x1="-6" y1="-6" x2="6" y2="6"/>
      <line x1="-6" y1="6" x2="6" y2="-6"/>
    </g>
    <text x="240" y="52" fill="#9B5CFF" font-family="Inter, sans-serif" font-weight="700" font-size="22" text-anchor="middle">Import file</text>
  </g>
  <text x="540" y="1980" fill="#9FA8C7" fill-opacity="0.6" font-family="JetBrains Mono, monospace" font-size="16" text-anchor="middle" letter-spacing="1">Supports .ply · .splat · .ksplat · .spz · .glb</text>
  <g transform="translate(540, 2240)">
    <circle r="56" fill="url(#fabGrad)"/>
    <circle r="64" fill="none" stroke="#9B5CFF" stroke-opacity="0.3" stroke-width="3"/>
    <circle r="14" fill="#06070F"/>
    <circle r="6" fill="#6EFFB7"/>
  </g>
  <rect x="0" y="2300" width="1080" height="100" fill="#03040A"/>
  <line x1="0" y1="2300" x2="1080" y2="2300" stroke="#F4EDE4" stroke-opacity="0.08"/>
  <g transform="translate(140, 2340)" text-anchor="middle">
    <g fill="#6EFFB7" fill-opacity="0.8">
      <circle cx="-12" cy="-12" r="3"/>
      <circle cx="0" cy="-15" r="3"/>
      <circle cx="12" cy="-10" r="3"/>
      <circle cx="-6" cy="-3" r="3"/>
      <circle cx="8" cy="2" r="3"/>
      <circle cx="-3" cy="10" r="3"/>
    </g>
    <text y="32" fill="#6EFFB7" fill-opacity="1" font-family="Inter, sans-serif" font-weight="600" font-size="13" letter-spacing="0.5">Avatars</text>
  </g>
  <g transform="translate(420, 2340)" text-anchor="middle">
    <g fill="#F4EDE4" fill-opacity="0.6">
      <circle cx="0" cy="-10" r="11" fill="none" stroke="#F4EDE4" stroke-width="2"/>
      <path d="M -6 -12 L 6 -12 L 3 -6 L 6 -6 L -2 4 L 1 -6 L -6 -6 Z"/>
    </g>
    <text y="32" fill="#F4EDE4" fill-opacity="0.5" font-family="Inter, sans-serif" font-weight="600" font-size="13" letter-spacing="0.5">Themes</text>
  </g>
  <g transform="translate(660, 2340)" text-anchor="middle">
    <g fill="none" stroke="#F4EDE4" stroke-opacity="0.6" stroke-width="2">
      <rect x="-12" y="-15" width="24" height="22" rx="3"/>
      <circle cx="0" cy="-3" r="3"/>
    </g>
    <text y="32" fill="#F4EDE4" fill-opacity="0.5" font-family="Inter, sans-serif" font-weight="600" font-size="13" letter-spacing="0.5">Wallpaper</text>
  </g>
  <g transform="translate(940, 2340)" text-anchor="middle">
    <g fill="none" stroke="#F4EDE4" stroke-opacity="0.6" stroke-width="2">
      <circle cx="0" cy="-8" r="6"/>
      <line x1="0" y1="-18" x2="0" y2="-14"/>
      <line x1="0" y1="-2" x2="0" y2="2"/>
      <line x1="-12" y1="-8" x2="-8" y2="-8"/>
      <line x1="8" y1="-8" x2="12" y2="-8"/>
    </g>
    <text y="32" fill="#F4EDE4" fill-opacity="0.5" font-family="Inter, sans-serif" font-weight="600" font-size="13" letter-spacing="0.5">Settings</text>
  </g>
</svg>