<svg xmlns="http://www.w3.org/2000/svg" viewBox="0 0 1200 240" width="1200" height="240">
  <defs>
    <linearGradient id="fabGradient" x1="0" y1="0" x2="1" y2="1">
      <stop offset="0%" stop-color="#6EFFB7"/>
      <stop offset="100%" stop-color="#9B5CFF"/>
    </linearGradient>
  </defs>
  <rect x="0" y="40" width="1200" height="200" fill="#03040A"/>
  <line x1="0" y1="40" x2="1200" y2="40" stroke="#FFFFFF" stroke-opacity="0.06"/>
  <g transform="translate(180, 100)">
    <rect x="-30" y="-10" width="60" height="80" rx="20" fill="#6EFFB7" fill-opacity="0.12"/>
    <g transform="translate(0,10)" fill="#6EFFB7">
      <circle cx="-10" cy="-8" r="4"/>
      <circle cx="8" cy="-4" r="5"/>
      <circle cx="-4" cy="6" r="3"/>
      <circle cx="12" cy="10" r="4"/>
    </g>
    <text x="0" y="60" fill="#6EFFB7" font-family="Inter, sans-serif" font-weight="600" font-size="14" text-anchor="middle">Avatars</text>
  </g>
  <g transform="translate(420, 100)" fill="#F5F7FF" fill-opacity="0.6">
    <g transform="translate(0,10)">
      <circle cx="0" cy="0" r="14" fill="none" stroke="#F5F7FF" stroke-opacity="0.6" stroke-width="2"/>
      <path d="M -8 -4 L 8 -4 L 4 4 L 8 4 L -2 14 L 2 4 L -8 4 Z" fill="#F5F7FF" fill-opacity="0.6"/>
    </g>
    <text x="0" y="60" fill="#F5F7FF" fill-opacity="0.6" font-family="Inter, sans-serif" font-weight="500" font-size="14" text-anchor="middle">Themes</text>
  </g>
  <g transform="translate(600, 60)">
    <circle r="56" fill="url(#fabGradient)"/>
    <circle r="56" fill="none" stroke="#9B5CFF" stroke-opacity="0.4" stroke-width="8"/>
    <circle r="14" fill="#06070F"/>
    <circle r="6" fill="#6EFFB7"/>
  </g>
  <g transform="translate(780, 100)" fill="#F5F7FF" fill-opacity="0.6">
    <g transform="translate(0,10)" stroke="#F5F7FF" stroke-opacity="0.6" stroke-width="2" fill="none">
      <rect x="-12" y="-8" width="24" height="16" rx="2"/>
      <circle cx="0" cy="2" r="3"/>
    </g>
    <text x="0" y="60" fill="#F5F7FF" fill-opacity="0.6" font-family="Inter, sans-serif" font-weight="500" font-size="14" text-anchor="middle">Wallpaper</text>
  </g>
  <g transform="translate(1020, 100)" fill="#F5F7FF" fill-opacity="0.6">
    <g transform="translate(0,10)" stroke="#F5F7FF" stroke-opacity="0.6" stroke-width="2" fill="none">
      <circle r="6"/>
      <line x1="0" y1="-14" x2="0" y2="-10"/>
      <line x1="0" y1="10" x2="0" y2="14"/>
      <line x1="-14" y1="0" x2="-10" y2="0"/>
      <line x1="10" y1="0" x2="14" y2="0"/>
    </g>
    <text x="0" y="60" fill="#F5F7FF" fill-opacity="0.6" font-family="Inter, sans-serif" font-weight="500" font-size="14" text-anchor="middle">Settings</text>
  </g>
</svg>
