<svg xmlns="http://www.w3.org/2000/svg" viewBox="0 0 1080 2400" width="1080" height="2400">
  <defs>
    <radialGradient id="meshAurora" cx="50%" cy="30%" r="80%">
      <stop offset="0%" stop-color="#6EFFB7" stop-opacity="0.20"/>
      <stop offset="50%" stop-color="#9B5CFF" stop-opacity="0.15"/>
      <stop offset="100%" stop-color="#06070F" stop-opacity="0"/>
    </radialGradient>
    <linearGradient id="fabGradient" x1="0" y1="0" x2="1" y2="1">
      <stop offset="0%" stop-color="#6EFFB7"/>
      <stop offset="100%" stop-color="#9B5CFF"/>
    </linearGradient>
  </defs>
  <rect width="1080" height="2400" fill="#06070F"/>
  <rect width="1080" height="2400" fill="url(#meshAurora)"/>
  <g transform="translate(60, 130)">
    <g stroke="#F5F7FF" stroke-width="2.5" fill="none">
      <polyline points="14,0 0,14 14,28"/>
    </g>
    <text x="60" y="24" fill="#F5F7FF" font-family="Space Grotesk, sans-serif" font-weight="700" font-size="36" letter-spacing="-0.8">Me</text>
  </g>
  <g transform="translate(990, 140)" fill="#F5F7FF">
    <circle cx="0" cy="0" r="3"/><circle cx="14" cy="0" r="3"/><circle cx="28" cy="0" r="3"/>
  </g>
  <rect x="60" y="240" width="960" height="960" rx="28" fill="#FFFFFF" fill-opacity="0.02" stroke="#FFFFFF" stroke-opacity="0.06"/>
  <g transform="translate(540, 720)" fill="#6EFFB7">
    <circle cx="0" cy="-180" r="6"/><circle cx="-20" cy="-170" r="4"/>
    <circle cx="20" cy="-170" r="4"/><circle cx="-10" cy="-190" r="5"/>
    <circle cx="10" cy="-190" r="5"/>
    <circle cx="-50" cy="-100" r="5"/><circle cx="50" cy="-100" r="5"/>
    <circle cx="-30" cy="-110" r="6"/><circle cx="30" cy="-110" r="6"/>
    <circle cx="0" cy="-60" r="5"/><circle cx="-20" cy="-50" r="4"/>
    <circle cx="20" cy="-50" r="4"/><circle cx="-10" cy="-30" r="5"/>
    <circle cx="10" cy="-30" r="5"/>
    <circle cx="-80" cy="-60" r="4"/><circle cx="-100" cy="-20" r="4"/>
    <circle cx="80" cy="-60" r="4"/><circle cx="100" cy="-20" r="4"/>
    <circle cx="-30" cy="40" r="5"/><circle cx="30" cy="40" r="5"/>
    <circle cx="-30" cy="100" r="5"/><circle cx="30" cy="100" r="5"/>
    <circle cx="-30" cy="160" r="4"/><circle cx="30" cy="160" r="4"/>
  </g>
  <g transform="translate(540, 720)" fill="#9B5CFF">
    <circle cx="0" cy="-180" r="3"/><circle cx="-40" cy="-100" r="4"/>
    <circle cx="40" cy="-100" r="4"/><circle cx="0" cy="-60" r="4"/>
    <circle cx="-20" cy="40" r="4"/><circle cx="20" cy="40" r="4"/>
  </g>
  <g transform="translate(940, 280)">
    <rect width="60" height="80" rx="16" fill="#FFFFFF" fill-opacity="0.04" stroke="#FFFFFF" stroke-opacity="0.06"/>
    <text x="30" y="28" fill="#9FA8C7" font-family="JetBrains Mono, monospace" font-size="10" text-anchor="middle">FPS</text>
    <text x="30" y="56" fill="#6EFFB7" font-family="JetBrains Mono, monospace" font-size="22" font-weight="700" text-anchor="middle">60</text>
    <text x="30" y="72" fill="#9FA8C7" font-family="JetBrains Mono, monospace" font-size="9" text-anchor="middle">HIGH</text>
  </g>
  <text x="60" y="1280" fill="#F5F7FF" font-family="Space Grotesk, sans-serif" font-weight="700" font-size="36" letter-spacing="-0.8">Me</text>
  <g transform="translate(60, 1310)">
    <rect width="120" height="28" rx="999" fill="#6EFFB7" fill-opacity="0.16"/>
    <text x="60" y="20" fill="#6EFFB7" font-family="Inter, sans-serif" font-weight="600" font-size="12" text-anchor="middle" letter-spacing="0.4">CAPTURED</text>
  </g>
  <text x="200" y="1330" fill="#9FA8C7" font-family="JetBrains Mono, monospace" font-size="14">- 1.2M splats - 12.4 MB</text>
  <text x="60" y="1380" fill="#F5F7FF" fill-opacity="0.72" font-family="Inter, sans-serif" font-size="18">Captured 2026-07-04 - Pixel 8 Pro - 1.7m</text>
  <text x="60" y="1480" fill="#F5F7FF" fill-opacity="0.48" font-family="Inter, sans-serif" font-weight="600" font-size="11" letter-spacing="1.4">POSE</text>
  <g transform="translate(60, 1510)">
    <g>
      <rect width="140" height="160" rx="20" fill="#9B5CFF" fill-opacity="0.20" stroke="#9B5CFF" stroke-width="2"/>
      <g transform="translate(70, 90)" fill="#6EFFB7">
        <circle r="4"/><circle cx="-10" cy="10" r="3"/><circle cx="10" cy="10" r="3"/>
      </g>
      <text x="70" y="135" fill="#F5F7FF" font-family="Inter, sans-serif" font-weight="600" font-size="14" text-anchor="middle">idle</text>
    </g>
    <g transform="translate(160, 0)">
      <rect width="140" height="160" rx="20" fill="#FFFFFF" fill-opacity="0.04" stroke="#FFFFFF" stroke-opacity="0.06"/>
      <g transform="translate(70, 90)" fill="#9B5CFF">
        <circle r="4"/><circle cx="20" cy="-10" r="3"/>
      </g>
      <text x="70" y="135" fill="#F5F7FF" fill-opacity="0.72" font-family="Inter, sans-serif" font-weight="500" font-size="14" text-anchor="middle">wave</text>
    </g>
    <g transform="translate(320, 0)">
      <rect width="140" height="160" rx="20" fill="#FFFFFF" fill-opacity="0.04" stroke="#FFFFFF" stroke-opacity="0.06"/>
      <g transform="translate(70, 90)" fill="#9B5CFF">
        <circle r="4"/><circle cx="0" cy="20" r="3"/>
      </g>
      <text x="70" y="135" fill="#F5F7FF" fill-opacity="0.72" font-family="Inter, sans-serif" font-weight="500" font-size="14" text-anchor="middle">bow</text>
    </g>
    <g transform="translate(480, 0)">
      <rect width="140" height="160" rx="20" fill="#FFFFFF" fill-opacity="0.04" stroke="#FFFFFF" stroke-opacity="0.06"/>
      <g transform="translate(70, 90)" fill="#9B5CFF">
        <circle r="4"/><circle cx="-15" cy="-5" r="3"/>
      </g>
      <text x="70" y="135" fill="#F5F7FF" fill-opacity="0.72" font-family="Inter, sans-serif" font-weight="500" font-size="14" text-anchor="middle">thumbs</text>
    </g>
    <g transform="translate(640, 0)">
      <rect width="140" height="160" rx="20" fill="#FFFFFF" fill-opacity="0.04" stroke="#FFFFFF" stroke-opacity="0.06"/>
      <text x="70" y="100" fill="#F5F7FF" fill-opacity="0.48" font-family="Inter, sans-serif" font-weight="500" font-size="14" text-anchor="middle">more -&gt;</text>
    </g>
  </g>
  <g transform="translate(60, 1750)">
    <rect width="300" height="72" rx="36" fill="#FFFFFF" fill-opacity="0.04" stroke="#FFFFFF" stroke-opacity="0.12"/>
    <text x="150" y="46" fill="#F5F7FF" font-family="Inter, sans-serif" font-weight="600" font-size="18" text-anchor="middle">Edit</text>
  </g>
  <g transform="translate(380, 1750)">
    <rect width="320" height="72" rx="36" fill="#FFFFFF" fill-opacity="0.04" stroke="#9B5CFF" stroke-opacity="0.6" stroke-width="1.5"/>
    <text x="160" y="46" fill="#9B5CFF" font-family="Inter, sans-serif" font-weight="700" font-size="18" text-anchor="middle">Set as Wallpaper</text>
  </g>
  <g transform="translate(720, 1750)">
    <rect width="300" height="72" rx="36" fill="#6EFFB7"/>
    <text x="150" y="46" fill="#06070F" font-family="Inter, sans-serif" font-weight="700" font-size="18" text-anchor="middle">Share</text>
  </g>
</svg>
