<svg xmlns="http://www.w3.org/2000/svg" viewBox="0 0 1080 2400" width="1080" height="2400">
  <defs>
    <radialGradient id="meshAurora" cx="50%" cy="30%" r="70%">
      <stop offset="0%" stop-color="#6EFFB7" stop-opacity="0.30"/>
      <stop offset="50%" stop-color="#9B5CFF" stop-opacity="0.20"/>
      <stop offset="100%" stop-color="#06070F" stop-opacity="0"/>
    </radialGradient>
  </defs>
  <rect width="1080" height="2400" fill="#06070F"/>
  <rect width="1080" height="2400" fill="url(#meshAurora)"/>
  <g transform="translate(60, 130)" stroke="#F5F7FF" stroke-width="2.5" fill="none">
    <polyline points="14,0 0,14 14,28"/>
  </g>
  <text x="120" y="160" fill="#F5F7FF" font-family="Space Grotesk, sans-serif" font-weight="700" font-size="36" letter-spacing="-0.8">Wallpaper</text>
  <g transform="translate(60, 280)">
    <rect width="960" height="1200" rx="28" fill="#0E1020" stroke="#FFFFFF" stroke-opacity="0.10"/>
    <g fill="#6EFFB7" fill-opacity="0.85" transform="translate(480, 600)">
      <circle cx="-100" cy="-150" r="5"/><circle cx="-60" cy="-180" r="6"/>
      <circle cx="-20" cy="-160" r="4"/><circle cx="20" cy="-170" r="5"/>
      <circle cx="60" cy="-150" r="6"/><circle cx="100" cy="-140" r="4"/>
      <circle cx="-80" cy="-80" r="5"/><circle cx="80" cy="-80" r="5"/>
      <circle cx="-40" cy="-30" r="6"/><circle cx="40" cy="-30" r="6"/>
      <circle cx="0" cy="20" r="5"/><circle cx="-30" cy="60" r="4"/>
      <circle cx="30" cy="60" r="4"/><circle cx="-60" cy="100" r="5"/>
      <circle cx="60" cy="100" r="5"/><circle cx="-100" cy="140" r="4"/>
      <circle cx="100" cy="140" r="4"/>
    </g>
    <g fill="#9B5CFF" fill-opacity="0.7" transform="translate(480, 600)">
      <circle cx="-40" cy="-100" r="3"/><circle cx="40" cy="-100" r="3"/>
      <circle cx="0" cy="-50" r="3"/><circle cx="-20" cy="40" r="3"/>
      <circle cx="20" cy="40" r="3"/>
    </g>
    <g transform="translate(900, 80)">
      <rect width="60" height="80" rx="16" fill="#FFFFFF" fill-opacity="0.04" stroke="#FFFFFF" stroke-opacity="0.06"/>
      <text x="30" y="28" fill="#9FA8C7" font-family="JetBrains Mono, monospace" font-size="10" text-anchor="middle">FPS</text>
      <text x="30" y="56" fill="#6EFFB7" font-family="JetBrains Mono, monospace" font-size="22" font-weight="700" text-anchor="middle">30</text>
      <text x="30" y="72" fill="#9FA8C7" font-family="JetBrains Mono, monospace" font-size="9" text-anchor="middle">LIVE</text>
    </g>
  </g>
  <text x="60" y="1560" fill="#F5F7FF" font-family="Inter, sans-serif" font-weight="600" font-size="18">Active avatar: Me (Idle pose)</text>
  <text x="60" y="1600" fill="#9FA8C7" font-family="JetBrains Mono, monospace" font-size="14">Tier: HIGH - 30 fps - 1.2M splats - sensor-driven</text>
  <g transform="translate(60, 1660)">
    <rect width="960" height="80" rx="40" fill="#6EFFB7"/>
    <text x="480" y="52" fill="#06070F" font-family="Inter, sans-serif" font-weight="700" font-size="18" text-anchor="middle">Set as wallpaper</text>
  </g>
  <g transform="translate(60, 1760)">
    <rect width="470" height="64" rx="32" fill="#FFFFFF" fill-opacity="0.04" stroke="#FFFFFF" stroke-opacity="0.12"/>
    <text x="235" y="42" fill="#F5F7FF" font-family="Inter, sans-serif" font-weight="600" font-size="16" text-anchor="middle">Lock screen</text>
  </g>
  <g transform="translate(550, 1760)">
    <rect width="470" height="64" rx="32" fill="#FFFFFF" fill-opacity="0.04" stroke="#9B5CFF" stroke-opacity="0.6" stroke-width="1.5"/>
    <text x="235" y="42" fill="#9B5CFF" font-family="Inter, sans-serif" font-weight="700" font-size="16" text-anchor="middle">Set on both</text>
  </g>
</svg>
